<svg id="Capa_1" enable-background="new 0 0 512.001 512.001" height="512" viewBox="0 0 512.001 512.001" width="512" xmlns="http://www.w3.org/2000/svg"><g><path d="m445.733 338.833c0-10.703-1.581-21.276-4.697-31.427-1.96-7.624-5.712-16.632-10.454-28.013-13.724-32.943-34.447-82.691-34.548-155.396l16.491-115.436c.307-2.152-.335-4.332-1.759-5.975-1.424-1.643-3.491-2.586-5.665-2.586h-298.201c-2.174 0-4.241.943-5.666 2.586-1.424 1.643-2.066 3.822-1.759 5.975l16.491 115.438c-.1 72.701-20.822 122.448-34.546 155.392-4.741 11.381-8.494 20.39-10.454 28.014-3.118 10.149-4.699 20.722-4.7 31.429 0 42.123 4.346 84.744 8.605 116.406.024.407.075.805.161 1.192 3.995 29.454 7.864 49.129 7.945 49.533.698 3.509 3.778 6.036 7.356 6.036h140.811c.005 0 .01.001.014.001.249 0 .494-.014.738-.039.048-.005.095-.014.143-.02.189-.023.378-.049.563-.086.084-.017.166-.039.249-.058.145-.034.289-.068.43-.11.099-.03.196-.064.294-.097.121-.042.242-.084.36-.132.104-.042.206-.087.308-.133.108-.049.215-.1.321-.154.102-.053.203-.107.303-.164.102-.058.202-.12.301-.182.095-.061.19-.122.282-.186.1-.07.197-.144.293-.219.084-.065.169-.13.25-.198.103-.087.2-.179.298-.271.068-.065.139-.127.204-.194.11-.111.213-.229.316-.347.048-.055.099-.107.145-.164.132-.161.256-.329.374-.501.013-.019.028-.036.041-.055.132-.195.255-.397.368-.605.024-.044.042-.09.065-.134.084-.162.165-.324.238-.493.04-.093.072-.19.109-.285.047-.123.095-.245.136-.372.037-.115.066-.232.097-.349.03-.113.062-.224.087-.339.027-.122.046-.245.067-.369.014-.083.034-.164.045-.249 3.391-25.334 6.718-74.539 7.894-92.895h19.044c1.176 18.356 4.503 67.561 7.894 92.895.011.085.031.166.045.249.021.124.04.248.067.369.025.115.057.226.087.339.031.117.06.234.097.349.041.127.09.25.137.374.036.094.068.19.108.282.073.171.156.337.241.501.021.041.039.085.061.125.114.209.237.411.368.607.011.016.024.031.035.047.12.176.247.346.381.509.044.054.092.103.137.155.105.121.211.242.324.356.064.065.132.126.199.189.1.094.199.188.304.276.08.067.162.13.245.195.098.076.197.152.299.223.091.064.184.124.277.183.1.064.201.126.304.185.099.056.198.11.3.162.107.055.215.106.324.156.101.046.202.09.305.132.119.048.241.091.363.133.097.033.193.067.291.096.142.042.287.077.432.111.083.019.164.041.248.058.186.037.375.063.565.086.047.006.094.015.141.02.244.024.49.039.738.039.005 0 .01-.001.014-.001h140.811c3.578 0 6.658-2.527 7.356-6.036.08-.404 3.95-20.08 7.945-49.536.085-.384.136-.78.16-1.183 4.264-31.665 8.61-74.289 8.609-116.414zm-354.745 123.467h136.843c-1.022 12.436-2.156 24.801-3.307 34.7h-127.962c-1.23-6.798-3.323-18.978-5.574-34.7zm198.146-64.7h-66.267c-4.142 0-7.5 3.357-7.5 7.5s3.358 7.5 7.5 7.5h8.577c-.508 7.842-1.368 20.66-2.431 34.7h-140.065c-3.921-30.396-7.68-69.652-7.68-108.467 0-9.265 1.374-18.409 4.084-27.18.038-.121.072-.244.104-.367 1.038-4.088 2.813-8.953 5.091-14.653h34.204c4.142 0 7.5-3.357 7.5-7.5s-3.358-7.5-7.5-7.5h-28.017c14.179-34.121 34.233-84.743 34.233-158.166 0-.354-.025-.709-.075-1.06l-15.344-107.407h280.905l-15.344 107.406c-.05.351-.075.706-.075 1.06 0 73.422 20.054 124.045 34.233 158.166h-86.769c11.843-21.598 17.08-53.326 17.747-57.612.637-4.093-2.164-7.927-6.257-8.564-4.094-.631-7.927 2.164-8.564 6.258-1.914 12.292-9.221 45.651-20.79 59.919h-109.266c-11.547-14.25-18.869-47.618-20.791-59.919-.637-4.093-4.473-6.89-8.564-6.258-4.093.638-6.894 4.472-6.257 8.564.667 4.286 5.904 36.015 17.747 57.612h-28.753c-4.142 0-7.5 3.357-7.5 7.5s3.358 7.5 7.5 7.5h266.703c2.278 5.7 4.053 10.565 5.091 14.652.032.124.066.247.104.369 2.711 8.769 4.085 17.913 4.086 27.179 0 38.798-3.761 78.062-7.683 108.467h-140.063c-1.063-14.04-1.923-26.858-2.431-34.7h8.577c4.142 0 7.5-3.357 7.5-7.5 0-4.142-3.358-7.499-7.5-7.499zm-1.657 99.4c-1.15-9.899-2.284-22.264-3.307-34.7h136.84c-2.25 15.721-4.343 27.902-5.572 34.7z"/><path d="m256 230.367c4.142 0 7.5-3.357 7.5-7.5v-8.284c0-4.143-3.358-7.5-7.5-7.5s-7.5 3.357-7.5 7.5v8.284c.001 4.143 3.358 7.5 7.5 7.5z"/><path d="m189.734 130.967h33.133c13.27 0 24.066-10.796 24.066-24.066 0-4.143-3.358-7.5-7.5-7.5s-7.5 3.357-7.5 7.5c0 4.999-4.067 9.066-9.066 9.066h-33.133c-4.142 0-7.5 3.357-7.5 7.5 0 4.142 3.358 7.5 7.5 7.5z"/><path d="m189.734 197.233h33.133c13.27 0 24.066-10.796 24.066-24.066 0-4.143-3.358-7.5-7.5-7.5s-7.5 3.357-7.5 7.5c0 4.999-4.067 9.066-9.066 9.066h-33.133c-4.142 0-7.5 3.357-7.5 7.5s3.358 7.5 7.5 7.5z"/><path d="m289.134 130.967h33.133c4.142 0 7.5-3.357 7.5-7.5s-3.358-7.5-7.5-7.5h-33.133c-4.999 0-9.066-4.067-9.066-9.066 0-4.143-3.358-7.5-7.5-7.5s-7.5 3.357-7.5 7.5c-.001 13.27 10.796 24.066 24.066 24.066z"/><path d="m189.734 64.7h33.133c13.27 0 24.066-10.797 24.066-24.067 0-4.143-3.358-7.5-7.5-7.5s-7.5 3.357-7.5 7.5c0 5-4.067 9.067-9.066 9.067h-33.133c-4.142 0-7.5 3.357-7.5 7.5s3.358 7.5 7.5 7.5z"/><path d="m289.134 64.7h33.133c4.142 0 7.5-3.357 7.5-7.5s-3.358-7.5-7.5-7.5h-33.133c-4.999 0-9.066-4.067-9.066-9.067 0-4.143-3.358-7.5-7.5-7.5s-7.5 3.357-7.5 7.5c-.001 13.27 10.796 24.067 24.066 24.067z"/><path d="m289.134 197.233h33.133c4.142 0 7.5-3.357 7.5-7.5s-3.358-7.5-7.5-7.5h-33.133c-4.999 0-9.066-4.067-9.066-9.066 0-4.143-3.358-7.5-7.5-7.5s-7.5 3.357-7.5 7.5c-.001 13.271 10.796 24.066 24.066 24.066z"/><path d="m57.201 91.117c-4.142 0-7.5 3.357-7.5 7.5v8.283c0 4.143 3.358 7.5 7.5 7.5s7.5-3.357 7.5-7.5v-8.283c0-4.142-3.358-7.5-7.5-7.5z"/><path d="m57.201 132.533c-4.142 0-7.5 3.357-7.5 7.5v8.283c0 4.143 3.358 7.5 7.5 7.5s7.5-3.357 7.5-7.5v-8.283c0-4.142-3.358-7.5-7.5-7.5z"/><path d="m73.767 130.967h8.283c4.142 0 7.5-3.357 7.5-7.5s-3.358-7.5-7.5-7.5h-8.283c-4.142 0-7.5 3.357-7.5 7.5 0 4.142 3.358 7.5 7.5 7.5z"/><path d="m40.634 115.967h-8.283c-4.142 0-7.5 3.357-7.5 7.5s3.358 7.5 7.5 7.5h8.283c4.142 0 7.5-3.357 7.5-7.5s-3.358-7.5-7.5-7.5z"/><path d="m454.8 91.117c-4.142 0-7.5 3.357-7.5 7.5v8.283c0 4.143 3.358 7.5 7.5 7.5s7.5-3.357 7.5-7.5v-8.283c0-4.142-3.358-7.5-7.5-7.5z"/><path d="m454.8 132.533c-4.142 0-7.5 3.357-7.5 7.5v8.283c0 4.143 3.358 7.5 7.5 7.5s7.5-3.357 7.5-7.5v-8.283c0-4.142-3.358-7.5-7.5-7.5z"/><path d="m479.65 115.967h-8.283c-4.142 0-7.5 3.357-7.5 7.5s3.358 7.5 7.5 7.5h8.283c4.142 0 7.5-3.357 7.5-7.5s-3.357-7.5-7.5-7.5z"/><path d="m438.234 115.967h-8.283c-4.142 0-7.5 3.357-7.5 7.5s3.358 7.5 7.5 7.5h8.283c4.142 0 7.5-3.357 7.5-7.5s-3.358-7.5-7.5-7.5z"/></g></svg>