<svg id="_x31__px" height="512" viewBox="0 0 24 24" width="512" xmlns="http://www.w3.org/2000/svg"><path d="m2.307 24c-.249 0-.465-.186-.495-.44l-.692-5.719c-.23-1.902-.131-3.814.297-5.683.259-1.139.391-2.307.391-3.47l.071-1.194c.087-1.435 1.024-2.655 2.387-3.109l2.653-.885c.742-.248 1.334-.838 1.581-1.581l.525-1.577c.089-.262.373-.4.633-.316.262.087.403.371.316.633l-.525 1.576c-.348 1.04-1.175 1.867-2.214 2.213l-2.653.885c-.974.325-1.643 1.197-1.705 2.222l-.07 1.164c.001 1.207-.139 2.449-.415 3.662-.401 1.757-.495 3.553-.279 5.341l.691 5.719c.033.274-.162.523-.437.557-.019.001-.04.002-.06.002z"/><path d="m21.693 24c-.021 0-.041-.001-.061-.003-.274-.033-.47-.282-.437-.557l.691-5.719c.216-1.788.122-3.584-.279-5.34-.276-1.213-.416-2.455-.416-3.692l-.069-1.134c-.063-1.025-.731-1.897-1.705-2.222l-2.653-.885c-1.039-.346-1.866-1.173-2.214-2.213l-.525-1.577c-.087-.262.055-.545.316-.633.264-.084.545.054.633.316l.526 1.578c.247.743.839 1.333 1.581 1.581l2.653.885c1.362.454 2.3 1.674 2.387 3.109l.07 1.164c.001 1.193.133 2.361.392 3.5.428 1.868.527 3.78.297 5.683l-.691 5.719c-.031.254-.247.44-.496.44z"/><path d="m7.5 10c-.128 0-.256-.049-.354-.146-.195-.195-.195-.512 0-.707.551-.551.854-1.282.854-2.061v-.586c0-.276.224-.5.5-.5s.5.224.5.5v.586c0 1.046-.407 2.029-1.146 2.768-.098.097-.226.146-.354.146z"/><path d="m16.5 10c-.128 0-.256-.049-.354-.146-.739-.739-1.146-1.722-1.146-2.768v-.586c0-.276.224-.5.5-.5s.5.224.5.5v.586c0 .779.303 1.51.854 2.061.195.195.195.512 0 .707-.098.097-.226.146-.354.146z"/><path d="m12 22c-.276 0-.5-.224-.5-.5v-13c0-.276.224-.5.5-.5s.5.224.5.5v13c0 .276-.224.5-.5.5z"/><path d="m18.5 24c-.225 0-.429-.151-.485-.379l-.33-1.32c-.457-1.833-.457-3.77 0-5.603.209-.834.315-1.695.315-2.558v-2.64c0-.276.224-.5.5-.5s.5.224.5.5v2.64c0 .946-.116 1.888-.345 2.802-.418 1.674-.418 3.443 0 5.118l.33 1.32c.066.268-.096.539-.364.606-.04.009-.081.014-.121.014z"/><path d="m5.5 24c-.04 0-.081-.005-.121-.015-.269-.067-.431-.338-.364-.606l.33-1.32c.418-1.674.418-3.444 0-5.118-.229-.913-.345-1.856-.345-2.801v-2.64c0-.276.224-.5.5-.5s.5.224.5.5v2.64c0 .864.106 1.725.315 2.559.457 1.833.457 3.771 0 5.603l-.33 1.32c-.056.227-.26.378-.485.378z"/></svg>